<svg version="1.1" viewBox="0.0 0.0 198.0288713910761 341.79265091863516" fill="none" stroke="none" stroke-linecap="square" stroke-miterlimit="10" xmlns:xlink="http://www.w3.org/1999/xlink" xmlns="http://www.w3.org/2000/svg"><clipPath id="p.0"><path d="m0 0l198.02887 0l0 341.79266l-198.02887 0l0 -341.79266z" clip-rule="nonzero"/></clipPath><g clip-path="url(#p.0)"><path fill="#000000" fill-opacity="0.0" d="m0 0l198.02887 0l0 341.79266l-198.02887 0z" fill-rule="evenodd"/><path fill="#000000" fill-opacity="0.0" d="m326.42914 166.61942l322.6457 0l0 66.26773l-322.6457 0z" fill-rule="evenodd"/><path fill="#012547" d="m381.21075 212.73943l0 -28.84375l0.046875 0l14.640625 20.796875l-1.578125 -0.296875l14.609375 -20.5l0.078125 0l0 28.84375l-3.703125 0l0 -20.328125l0.21875 1.890625l-10.546875 14.921875l-0.078125 0l-10.703125 -14.921875l0.65625 -1.734375l0 20.171875l-3.640625 0zm35.83435 -27.953125l18.171875 0l0 3.59375l-14.421875 0l0 8.515625l12.875 0l0 3.59375l-12.875 0l0 8.65625l14.96875 0l0 3.59375l-18.71875 0l0 -27.953125zm25.203857 27.953125l0 -27.953125l7.625 0q4.125 0 7.046875 1.28125q2.921875 1.28125 4.703125 3.375q1.78125 2.078125 2.609375 4.609375q0.828125 2.53125 0.828125 5.046875q0 3.171875 -1.109375 5.6875q-1.09375 2.5 -3.03125 4.28125q-1.921875 1.78125 -4.421875 2.734375q-2.5 0.9375 -5.28125 0.9375l-8.96875 0zm3.75 -3.59375l4.484375 0q2.328125 0 4.28125 -0.6875q1.953125 -0.703125 3.390625 -2.015625q1.453125 -1.3125 2.265625 -3.21875q0.8125 -1.921875 0.8125 -4.359375q0 -2.59375 -0.859375 -4.546875q-0.84375 -1.953125 -2.3125 -3.265625q-1.46875 -1.3125 -3.328125 -1.984375q-1.84375 -0.6875 -3.890625 -0.6875l-4.84375 0l0 20.765625zm25.358154 -24.359375l3.75 0l0 27.953125l-3.75 0l0 -27.953125zm9.743256 0l18.5625 0l0 3.59375l-7.5 0l0 24.359375l-3.75 0l0 -24.359375l-7.3125 0l0 -3.59375zm31.928009 0q2.125 0 3.921875 0.5625q1.796875 0.5625 3.125 1.671875q1.34375 1.09375 2.09375 2.703125q0.765625 1.59375 0.765625 3.71875q0 1.671875 -0.484375 3.265625q-0.484375 1.578125 -1.609375 2.875q-1.125 1.28125 -2.921875 2.078125q-1.796875 0.796875 -4.421875 0.796875l-4.1405945 0l0 10.28125l-3.75 0l0 -27.953125l7.4218445 0zm0.390625 14.078125q1.65625 0 2.75 -0.5q1.109375 -0.5 1.734375 -1.296875q0.625 -0.796875 0.890625 -1.71875q0.265625 -0.9375 0.265625 -1.75q0 -0.84375 -0.296875 -1.75q-0.28125 -0.90625 -0.921875 -1.671875q-0.640625 -0.78125 -1.671875 -1.28125q-1.015625 -0.515625 -2.484375 -0.515625l-4.3280945 0l0 10.484375l4.0624695 0zm4.59375 2.125l7.3125 11.75l-4.328125 0l-7.421875 -11.640625l4.4375 -0.109375zm13.068237 -16.203125l3.75 0l0 27.953125l-3.75 0l0 -27.953125zm35.993225 28.84375l-21.609375 -21.921875l1.078125 0.265625l0.078125 20.765625l-3.75 0l0 -28.796875l0.203125 0l21.375 22.0l-0.890625 -0.203125l-0.078125 -20.953125l3.703125 0l0 28.84375l-0.109375 0zm5.3709106 -0.890625l12.21875 -29.109375l0.234375 0l12.171875 29.109375l-4.296875 0l-9.109375 -23.234375l2.65625 -1.734375l-10.203125 24.96875l-3.671875 0zm7.15625 -10.59375l10.390625 0l1.25 3.25l-12.71875 0l1.078125 -3.25z" fill-rule="nonzero"/><path fill="#fff7ee" d="m40.30203 175.87909l9.729881 -78.69088l0 0c5.3736687 -43.45977 38.02341 -78.69088 72.92525 -78.69088c34.901833 0 58.83915 35.23111 53.465477 78.69088l-9.729874 78.69088z" fill-rule="evenodd"/><path stroke="#012547" stroke-width="4.0" stroke-linejoin="round" stroke-linecap="butt" d="m40.30203 175.87909l9.729881 -78.69088l0 0c5.3736687 -43.45977 38.02341 -78.69088 72.92525 -78.69088c34.901833 0 58.83915 35.23111 53.465477 78.69088l-9.729874 78.69088z" fill-rule="evenodd"/><path fill="#8db4f3" d="m166.69276 175.87909l-9.731979 78.70775l0 0c-5.374817 43.4691 -38.02549 78.70775 -72.92733 78.70775c-34.901833 0 -58.83821 -35.238647 -53.463394 -78.70775l9.731968 -78.70775z" fill-rule="evenodd"/><path stroke="#012547" stroke-width="4.0" stroke-linejoin="round" stroke-linecap="butt" d="m166.69276 175.87909l-9.731979 78.70775l0 0c-5.374817 43.4691 -38.02549 78.70775 -72.92733 78.70775c-34.901833 0 -58.83821 -35.238647 -53.463394 -78.70775l9.731968 -78.70775z" fill-rule="evenodd"/><path fill="#999999" fill-opacity="0.1321" d="m86.122185 333.28088c-2.779747 -2.0399475 15.767647 -19.190948 22.567451 -28.84314c6.7998047 -9.652161 13.575356 -18.229004 18.231361 -29.069885c4.655998 -10.840912 7.112587 -22.950943 9.7046585 -35.975464c2.5920563 -13.024506 3.9179993 -25.563492 5.847687 -42.17166c1.9297028 -16.60817 4.475189 -41.84041 5.7304688 -57.47737c1.2552948 -15.636955 1.7940674 -24.209991 1.8012695 -36.344383c0.0071868896 -12.134384 -0.2485199 -26.51825 -1.7581024 -36.461952c-1.5095825 -9.943699 -3.1177216 -14.872227 -7.2993774 -23.200249c-4.181671 -8.328026 -17.619637 -22.732212 -17.790611 -26.767899c-0.17097473 -4.0356874 10.879768 -0.051527023 16.764763 2.5537758c5.88501 2.6053047 13.440216 6.3730717 18.545258 13.078049c5.1050415 6.704975 9.345581 17.995594 12.084976 27.151817c2.7393951 9.156216 4.3234253 15.979534 4.3513794 27.785503c0.027954102 11.805969 -1.107666 13.559509 -4.18367 43.05031c-3.076004 29.490799 -6.7137604 102.87967 -14.272339 133.89449c-7.5585938 31.014862 -19.358368 40.72821 -31.079224 52.19455c-11.720863 11.466339 -36.4662 18.643433 -39.24595 16.603516z" fill-rule="evenodd"/><path fill="#ffffff" fill-opacity="0.6352" d="m68.495544 83.91719l0 0c4.166054 -22.830666 12.697327 -40.85914 19.055122 -40.267715l0 0c3.0531235 0.28401184 5.186455 4.9116936 5.9306946 12.865009c0.7442398 7.953312 0.038414 18.580769 -1.9621887 29.544437l0 0c-4.166054 22.830673 -12.697327 40.859146 -19.055122 40.267723l0 0c-3.0531235 -0.28401184 -5.186455 -4.9116974 -5.9306946 -12.865013c-0.7442398 -7.953308 -0.03842163 -18.580765 1.9621887 -29.544441z" fill-rule="evenodd"/><path fill="#012547" d="m84.04855 90.24803l0 0c0 -4.487854 3.454811 -8.125984 7.7165375 -8.125984l0 0c2.0465546 0 4.009285 0.8561249 5.4564133 2.380043c1.4471359 1.5239182 2.2601242 3.5907974 2.2601242 5.745941l0 0c0 4.487854 -3.454811 8.125984 -7.7165375 8.125984l0 0c-4.2617264 0 -7.7165375 -3.6381302 -7.7165375 -8.125984z" fill-rule="evenodd"/><path fill="#012547" d="m127.87139 90.24803l0 0c0 -4.487854 3.454811 -8.125984 7.71653 -8.125984l0 0c2.0465546 0 4.0092926 0.8561249 5.456421 2.380043c1.4471283 1.5239182 2.2601166 3.5907974 2.2601166 5.745941l0 0c0 4.487854 -3.4548035 8.125984 -7.7165375 8.125984l0 0c-4.2617188 0 -7.71653 -3.6381302 -7.71653 -8.125984z" fill-rule="evenodd"/><path fill="#000000" fill-opacity="0.0" d="m131.2795 114.11594l0 0c-4.481529 5.057907 -10.946381 7.987343 -17.972351 8.143875c-7.0259705 0.15652466 -14.037529 -2.4726868 -19.492218 -7.309227l16.897636 -19.07087z" fill-rule="evenodd"/><path fill="#000000" fill-opacity="0.0" d="m131.2795 114.11594l0 0c-4.481529 5.057907 -10.946381 7.987343 -17.972351 8.143875c-7.0259705 0.15652466 -14.037529 -2.4726868 -19.492218 -7.309227" fill-rule="evenodd"/><path stroke="#012547" stroke-width="4.0" stroke-linejoin="round" stroke-linecap="butt" d="m131.2795 114.11594l0 0c-4.481529 5.057907 -10.946381 7.987343 -17.972351 8.143875c-7.0259705 0.15652466 -14.037529 -2.4726868 -19.492218 -7.309227" fill-rule="evenodd"/><path fill="#ffc6df" fill-opacity="0.4403" d="m68.37664 106.5l0 0c0 -4.487854 4.963646 -8.125984 11.0866165 -8.125984l0 0c6.122963 0 11.086609 3.6381302 11.086609 8.125984l0 0c0 4.487854 -4.963646 8.125984 -11.086609 8.125984l0 0c-6.1229706 0 -11.0866165 -3.6381302 -11.0866165 -8.125984z" fill-rule="evenodd"/><path fill="#ffc6df" fill-opacity="0.4403" d="m133.3084 106.5l0 0c0 -4.487854 4.9636536 -8.125984 11.086624 -8.125984l0 0c6.1229553 0 11.086609 3.6381302 11.086609 8.125984l0 0c0 4.487854 -4.9636536 8.125984 -11.086609 8.125984l0 0c-6.1229706 0 -11.086624 -3.6381302 -11.086624 -8.125984z" fill-rule="evenodd"/><path fill="#ffc6df" d="m62.931114 193.24161c7.1955414 -14.492126 31.477036 1.6397705 -0.99212265 19.062988c-30.48491 -20.702744 -4.6601067 -34.224396 0.99212265 -19.062988z" fill-rule="evenodd"/><path stroke="#012547" stroke-width="2.0" stroke-linejoin="round" stroke-linecap="butt" d="m62.931114 193.24161c7.1955414 -14.492126 31.477036 1.6397705 -0.99212265 19.062988c-30.48491 -20.702744 -4.6601067 -34.224396 0.99212265 -19.062988z" fill-rule="evenodd"/><path fill="#ffd5a6" d="m57.403557 223.13663c7.1955414 -14.492126 31.477036 1.6397552 -0.99212646 19.062988c-30.484907 -20.702759 -4.660103 -34.22441 0.99212646 -19.062988z" fill-rule="evenodd"/><path stroke="#012547" stroke-width="2.0" stroke-linejoin="round" stroke-linecap="butt" d="m57.403557 223.13663c7.1955414 -14.492126 31.477036 1.6397552 -0.99212646 19.062988c-30.484907 -20.702759 -4.660103 -34.22441 0.99212646 -19.062988z" fill-rule="evenodd"/><path fill="#ffe775" d="m52.53479 253.03163c7.1955376 -14.492126 31.477036 1.6397705 -0.99212646 19.063004c-30.484907 -20.702759 -4.660103 -34.22441 0.99212646 -19.063004z" fill-rule="evenodd"/><path stroke="#012547" stroke-width="2.0" stroke-linejoin="round" stroke-linecap="butt" d="m52.53479 253.03163c7.1955376 -14.492126 31.477036 1.6397705 -0.99212646 19.063004c-30.484907 -20.702759 -4.660103 -34.22441 0.99212646 -19.063004z" fill-rule="evenodd"/><path fill="#ffffff" fill-opacity="0.6352" d="m69.041336 195.05214l0 0c1.8438492 -2.7135925 4.769867 -4.1237183 6.5354385 -3.1496124l0 0c0.8478546 0.4677887 1.3092422 1.4340668 1.2826614 2.6862793c-0.02658081 1.2522125 -0.53894806 2.6877747 -1.4244003 3.9908905l0 0c-1.8438416 2.7135925 -4.7698593 4.1237183 -6.535431 3.1495972l0 0c-1.7655716 -0.97410583 -1.7021179 -3.9635773 0.14173126 -6.6771545z" fill-rule="evenodd"/><path fill="#ffffff" fill-opacity="0.6352" d="m63.51378 223.07445l0 0c1.8438492 -2.7135925 4.7698593 -4.1237183 6.535431 -3.1496124l0 0c0.84786224 0.4677887 1.3092499 1.4340668 1.2826691 2.6862793c-0.02658081 1.2522125 -0.53894806 2.6877747 -1.4244003 3.9908905l0 0c-1.8438492 2.7135925 -4.7698593 4.1237183 -6.535431 3.1496124l0 0c-1.7655716 -0.9741211 -1.7021179 -3.9635773 0.14173126 -6.67717z" fill-rule="evenodd"/><path fill="#ffffff" fill-opacity="0.6352" d="m59.394356 254.35791l0 0c1.8438492 -2.7135925 4.7698593 -4.1237183 6.535431 -3.1496124l0 0c0.84786224 0.4677887 1.3092499 1.4340668 1.2826691 2.6862793c-0.02658081 1.2522125 -0.53894806 2.68779 -1.4244003 3.9908905l0 0c-1.8438454 2.7135925 -4.7698593 4.1237183 -6.535431 3.1495972l0 0c-1.7655716 -0.9740906 -1.7021141 -3.963562 0.14173126 -6.6771545z" fill-rule="evenodd"/></g></svg>