<svg width="208" height="208" viewBox="0 0 208 208" fill="none" xmlns="http://www.w3.org/2000/svg">
<path d="M153.67 158.432L142.912 147.674C139.34 144.102 137.333 139.257 137.333 134.206V108.762M42.0952 184.952H23.0476C12.5279 184.952 4 176.425 4 165.905V80.1905M4 80.1905H51.619M4 80.1905V42.0952C4 31.5755 12.5279 23.0476 23.0476 23.0476H42.0952M194.476 46.8571V42.0952C194.476 31.5755 185.949 23.0476 175.429 23.0476H156.381M156.381 23.0476V4M156.381 23.0476H99.2381M42.0952 23.0476H99.2381M42.0952 23.0476V4M99.2381 23.0476V4M204 137.333C204 174.152 174.152 204 137.333 204C100.514 204 70.6667 174.152 70.6667 137.333C70.6667 100.514 100.514 70.6667 137.333 70.6667C174.152 70.6667 204 100.514 204 137.333Z" stroke="#FFD5A6" stroke-width="8" stroke-linecap="round" stroke-linejoin="round"/>
</svg>
