<svg width="208" height="258" viewBox="0 0 208 258" fill="none" xmlns="http://www.w3.org/2000/svg">
<path d="M54 31.4297H29C15.1929 31.4297 4 42.5018 4 56.1598V229.27C4 242.928 15.1929 254 29 254H179C192.807 254 204 242.928 204 229.27V56.1598C204 42.5019 192.807 31.4297 179 31.4297H154M54 31.4297V43.7949C54 57.4529 65.1929 68.5249 79 68.5249H129C142.807 68.5249 154 57.4529 154 43.7949V31.4297M54 31.4297C54 21.1863 62.3946 12.8823 72.75 12.8823H78.611C78.8635 12.8823 79.1088 12.8012 79.3113 12.6514L82.3913 10.3662C94.8875 1.09525 112.31 2.04106 123.705 12.6089C123.895 12.7845 124.145 12.8823 124.404 12.8823H132.501C144.375 12.8823 154 19.6847 154 31.4297M54 155.08H76.2222L90.1112 117.985L116.5 192.175L133.166 155.08H154" stroke="#FFC9D3" stroke-width="8" stroke-linecap="round" stroke-linejoin="round"/>
</svg>
