<svg width="130" height="150" viewBox="0 0 130 150" fill="none" xmlns="http://www.w3.org/2000/svg">
<g clip-path="url(#clip0_24_334)">
<mask id="mask0_24_334" style="mask-type:luminance" maskUnits="userSpaceOnUse" x="0" y="0" width="130" height="150">
<path d="M0 0H130V150H0V0Z" fill="white"/>
</mask>
<g mask="url(#mask0_24_334)">
<path fill-rule="evenodd" clip-rule="evenodd" d="M44.6846 53.7164L67.023 26.8579C79.3601 12.0244 99.0505 7.65516 111.003 17.0989C122.955 26.5427 122.643 46.2234 110.306 61.0569L87.9673 87.9153L44.6846 53.7164Z" fill="#FFF7EE"/>
<path fill-rule="evenodd" clip-rule="evenodd" d="M44.6846 53.7164L67.023 26.8579C79.3601 12.0244 99.0505 7.65516 111.003 17.0989C122.955 26.5427 122.643 46.2234 110.306 61.0569L87.9673 87.9153L44.6846 53.7164Z" stroke="#012547" stroke-width="4" stroke-miterlimit="10" stroke-linejoin="round"/>
<path fill-rule="evenodd" clip-rule="evenodd" d="M87.9673 87.9154L65.6242 114.78C53.2844 129.616 33.5919 133.988 21.6397 124.544C9.68752 115.101 10.0017 95.4173 22.3415 80.5806L44.6846 53.7164L87.9673 87.9154Z" fill="#FFE775"/>
<path fill-rule="evenodd" clip-rule="evenodd" d="M87.9673 87.9154L65.6242 114.78C53.2844 129.616 33.5919 133.988 21.6397 124.544C9.68752 115.101 10.0017 95.4173 22.3415 80.5806L44.6846 53.7164L87.9673 87.9154Z" stroke="#012547" stroke-width="4" stroke-miterlimit="10" stroke-linejoin="round"/>
<path fill-rule="evenodd" clip-rule="evenodd" d="M21.1043 124.916C20.6704 123.391 31.1887 122.198 35.8786 120.517C40.5685 118.836 44.9837 117.546 49.2437 114.831C53.5037 112.116 57.3348 108.321 61.4384 104.226C65.542 100.131 69.0974 95.8643 73.8652 90.261C78.633 84.6576 85.746 76.0375 90.0453 70.6059C94.3445 65.1744 96.651 62.1551 99.6605 57.6719C102.67 53.1887 106.148 47.8011 108.102 43.7068C110.056 39.6125 110.734 37.3445 111.384 33.1059C112.035 28.8674 111.063 19.8144 112.005 18.2753C112.948 16.7362 115.695 21.2752 117.038 23.8711C118.381 26.4671 120.001 29.9562 120.065 33.8511C120.128 37.7459 118.764 43.0959 117.42 47.2404C116.077 51.3849 114.922 54.3465 112.005 58.7181C109.089 63.0896 108.271 63.4227 99.9232 73.4697C91.5756 83.5168 72.1597 109.634 61.9195 119C51.6793 128.367 45.2845 128.683 38.482 129.669C31.6795 130.655 21.5382 126.441 21.1043 124.916Z" fill="#999999" fill-opacity="0.1321"/>
<path fill-rule="evenodd" clip-rule="evenodd" d="M72.4793 28.3799C79.8964 21.5338 87.4491 17.6823 89.3486 19.7773C90.2608 20.7833 89.7206 23.0541 87.8471 26.0902C85.9735 29.1262 82.9199 32.6788 79.358 35.9664C71.9409 42.8125 64.3883 46.664 62.4888 44.569C61.5766 43.563 62.1167 41.2922 63.9903 38.2561C65.8639 35.2201 68.9175 31.6675 72.4793 28.3799Z" fill="white" fill-opacity="0.6352"/>
</g>
</g>
<defs>
<clipPath id="clip0_24_334">
<rect width="130" height="150" fill="white"/>
</clipPath>
</defs>
</svg>
